<?xml version="1.0" encoding="UTF-8"?>
<svg width="120" height="40" viewBox="0 0 120 40" fill="none" xmlns="http://www.w3.org/2000/svg">
  <path d="M20.4 0H19.6C8.8 0 0 8.8 0 19.6V20.4C0 31.2 8.8 40 19.6 40H20.4C31.2 40 40 31.2 40 20.4V19.6C40 8.8 31.2 0 20.4 0Z" fill="#00A851"/>
  <path d="M28.8 20C28.8 24.8 24.8 28.8 20 28.8C15.2 28.8 11.2 24.8 11.2 20C11.2 15.2 15.2 11.2 20 11.2C24.8 11.2 28.8 15.2 28.8 20Z" fill="white"/>
  <path d="M50 10H60.4C65.2 10 68.8 13.6 68.8 18.4C68.8 23.2 65.2 26.8 60.4 26.8H54.4V32H50V10ZM54.4 22.8H60C62.8 22.8 64.4 21.2 64.4 18.4C64.4 15.6 62.8 14 60 14H54.4V22.8Z" fill="#00A851"/>
  <path d="M72 10H76.4V32H72V10Z" fill="#00A851"/>
  <path d="M80.8 21.2C80.8 15.2 85.6 10 92 10C96.4 10 99.6 12 101.2 14.8L97.6 16.8C96.4 14.8 94.4 13.6 92 13.6C87.6 13.6 84.8 16.8 84.8 21.2C84.8 25.6 87.6 28.8 92 28.8C94.4 28.8 96.4 27.6 97.6 25.6L101.2 27.6C99.6 30.4 96.4 32.4 92 32.4C85.6 32 80.8 27.2 80.8 21.2Z" fill="#00A851"/>
  <path d="M104.4 10H120V13.6H108.8V19.2H119.2V22.8H108.8V28.4H120V32H104.4V10Z" fill="#00A851"/>
</svg>
